<svg version="1.1" xmlns="http://www.w3.org/2000/svg" xmlns:xlink="http://www.w3.org/1999/xlink" x="0px" y="0px" viewBox="0 0 16 16" xml:space="preserve" width="16" height="16"><g class="nc-icon-wrapper" fill="#444444"><polygon fill="#444444" points="6,1 0,1 0,4 1,4 2,3 5,3 5,14 3,15 3,16 6,16 9,16 9,15 7,14 7,3 10,3 11,4 12,4 12,1 "></polygon> <polygon data-color="color-2" fill="#444444" points="8,6 8,9 9,9 10,8 11,8 11,14 10,15 10,16 14,16 14,15 13,14 13,8 14,8 15,9 16,9 16,6 "></polygon></g></svg>