<svg version="1.1" xmlns="http://www.w3.org/2000/svg" xmlns:xlink="http://www.w3.org/1999/xlink" x="0px" y="0px" viewBox="0 0 16 16" xml:space="preserve" width="16" height="16"><g class="nc-icon-wrapper" fill="#444444"><path fill="#444444" d="M11.56085,7.31641c0.96506-0.70764,1.56221-1.88808,1.41765-3.20763 C12.78094,2.30548,11.14325,0.99999,9.32916,1L2,1v1l1.44721,0.72361C3.786,2.893,4,3.23926,4,3.61803v8.76393 c0,0.37877-0.214,0.72504-0.55279,0.89443L2,14v1l7.82266,0c2.10385,0,3.98039-1.54746,4.16186-3.64347 C14.14087,9.55075,13.09633,7.96788,11.56085,7.31641z M7,3h1c1.10455,0,2,0.89539,2,2c0,1.10455-0.89545,2-2,2H7V3z M9,13H7V9h2 c1.10455,0,2,0.89539,2,2C11,12.10455,10.10455,13,9,13z"></path></g></svg>