<svg version="1.1" xmlns="http://www.w3.org/2000/svg" xmlns:xlink="http://www.w3.org/1999/xlink" x="0px" y="0px" viewBox="0 0 16 16" xml:space="preserve" width="16" height="16"><g class="nc-icon-wrapper" fill="#444444"><path fill="#444444" d="M14,0H2C1.4,0,1,0.4,1,1v14c0,0.6,0.4,1,1,1h12c0.6,0,1-0.4,1-1V1C15,0.4,14.6,0,14,0z M13,14H3V2h10V14z"></path> <rect data-color="color-2" x="4" y="3" fill="#444444" width="4" height="4"></rect> <rect data-color="color-2" x="9" y="4" fill="#444444" width="3" height="1"></rect> <rect data-color="color-2" x="9" y="6" fill="#444444" width="3" height="1"></rect> <rect data-color="color-2" x="4" y="8" fill="#444444" width="8" height="1"></rect> <rect data-color="color-2" x="4" y="10" fill="#444444" width="8" height="1"></rect> <rect data-color="color-2" x="4" y="12" fill="#444444" width="5" height="1"></rect></g></svg>